<svg width="24" height="25" viewBox="0 0 24 25" fill="none" xmlns="http://www.w3.org/2000/svg">
<g clip-path="url(#clip0_8_8497)">
<path d="M11.9531 24.4062C18.4922 24.4062 23.9062 18.9805 23.9062 12.4531C23.9062 5.91406 18.4805 0.5 11.9414 0.5C5.41406 0.5 0 5.91406 0 12.4531C0 18.9805 5.42578 24.4062 11.9531 24.4062ZM11.9531 22.4141C6.42188 22.4141 2.00391 17.9844 2.00391 12.4531C2.00391 6.92188 6.41016 2.49219 11.9414 2.49219C17.4727 2.49219 21.9141 6.92188 21.9141 12.4531C21.9141 17.9844 17.4844 22.4141 11.9531 22.4141ZM19.5703 12.4648C19.5703 11.6797 18.5391 11.082 17.2617 11.082H14.7539C14.4492 11.082 14.3555 11.0469 14.1562 10.8359L9.98438 6.28906C9.83203 6.11328 9.64453 6.03125 9.43359 6.03125H8.70703C8.46094 6.03125 8.32031 6.25391 8.42578 6.5L10.5117 11.1055L7.59375 11.4453L6.50391 9.45312C6.39844 9.26562 6.23438 9.17188 5.97656 9.17188H5.70703C5.48438 9.17188 5.33203 9.32422 5.33203 9.54688V15.3711C5.33203 15.5938 5.48438 15.7461 5.70703 15.7461H5.97656C6.23438 15.7461 6.39844 15.6523 6.50391 15.4766L7.59375 13.4844L10.5117 13.8125L8.42578 18.418C8.32031 18.6641 8.46094 18.8867 8.70703 18.8867H9.43359C9.64453 18.8867 9.83203 18.8047 9.98438 18.6406L14.1562 14.0938C14.3555 13.8828 14.4492 13.8359 14.7539 13.8359H17.2617C18.5391 13.8359 19.5703 13.2383 19.5703 12.4648Z" fill="white" fill-opacity="0.6"/>
</g>
<defs>
<clipPath id="clip0_8_8497">
<rect width="23.9062" height="23.918" fill="white" transform="translate(0 0.5)"/>
</clipPath>
</defs>
</svg>
