<svg width="25" height="24" viewBox="0 0 25 24" fill="none" xmlns="http://www.w3.org/2000/svg">
<g clip-path="url(#clip0_78_1794)">
<path d="M12.7031 23.8945C15.5156 23.8945 18.2344 22.8867 20.4023 21.0469L11.9648 12.7734C11.7305 12.5625 11.6836 12.3633 11.6836 12.0469V0.0351562C5.60156 0.5625 0.75 5.75391 0.75 11.9414C0.75 18.4805 6.17578 23.8945 12.7031 23.8945ZM24.6562 11.9414C24.6562 10.1836 24.2227 8.34375 23.4844 6.84375L13.9102 12.3516L21.5625 19.9102C23.4844 17.8125 24.6562 14.9297 24.6562 11.9414ZM13.2539 10.9102L22.7109 5.47266C20.6719 2.27344 16.9805 0.152344 13.2539 0V10.9102Z" fill="#FA5E35"/>
</g>
<defs>
<clipPath id="clip0_78_1794">
<rect width="23.9062" height="23.8945" fill="white" transform="translate(0.75)"/>
</clipPath>
</defs>
</svg>
