<svg width="25" height="25" viewBox="0 0 25 25" fill="none" xmlns="http://www.w3.org/2000/svg">
<g clip-path="url(#clip0_78_432)">
<path d="M0.25 10.8633C0.25 13.1836 1.46875 14.9648 3.05078 14.9648C4.63281 14.9648 5.86328 13.1836 5.86328 10.8633C5.86328 8.55469 4.63281 6.76172 3.05078 6.76172C1.46875 6.76172 0.25 8.55469 0.25 10.8633ZM5.93359 4.10156C5.93359 6.41016 7.17578 8.19141 8.74609 8.19141C10.3398 8.19141 11.5703 6.39844 11.5703 4.10156C11.5703 1.78125 10.3398 0 8.74609 0C7.17578 0 5.93359 1.78125 5.93359 4.10156ZM13.5977 4.10156C13.5977 6.39844 14.8164 8.19141 16.4102 8.19141C17.9805 8.19141 19.2227 6.41016 19.2227 4.10156C19.2227 1.78125 17.9805 0 16.4102 0C14.8164 0 13.5977 1.78125 13.5977 4.10156ZM19.293 10.8633C19.293 13.1836 20.5234 14.9648 22.1055 14.9648C23.6875 14.9648 24.9062 13.1836 24.9062 10.8633C24.9062 8.55469 23.6875 6.76172 22.1055 6.76172C20.5234 6.76172 19.293 8.55469 19.293 10.8633ZM3.76562 19.9336C3.76562 22.3008 5.35938 23.9883 7.70312 23.9883C8.86328 23.9883 9.70703 23.6602 10.5156 23.3789C11.1719 23.1445 11.8047 22.9336 12.5781 22.9336C13.3398 22.9336 13.9727 23.1445 14.6406 23.3789C15.4492 23.6602 16.2812 23.9883 17.4414 23.9883C19.7969 23.9883 21.3906 22.3008 21.3906 19.9336C21.3906 17.918 20.1836 16.8984 19.0234 15.9492C18.3789 15.4336 17.7578 14.9414 17.3359 14.2852C16.9844 13.7578 16.6914 13.1836 16.4453 12.6445C15.6016 10.8398 14.9336 9.14062 12.5781 9.14062C10.2109 9.14062 9.55469 10.8398 8.71094 12.6328C8.45312 13.1836 8.17188 13.7461 7.83203 14.2617C7.39844 14.918 6.76562 15.4336 6.13281 15.9492C4.97266 16.8984 3.76562 17.9297 3.76562 19.9336Z" fill="#FA5E35"/>
</g>
<defs>
<clipPath id="clip0_78_432">
<rect width="24.6562" height="24.0117" fill="white" transform="translate(0.25)"/>
</clipPath>
</defs>
</svg>
