<svg width="27" height="24" viewBox="0 0 27 24" fill="none" xmlns="http://www.w3.org/2000/svg">
<g clip-path="url(#clip0_78_1731)">
<path d="M26.6641 11.9297C26.6523 10.5586 24.7891 9.5625 22.5508 9.5625H17.8281C17.1719 9.5625 16.9258 9.45703 16.5391 9.01172L8.66406 0.421875C8.41797 0.140625 8.11328 0 7.76172 0H6.40234C6.09766 0 5.92188 0.269531 6.07422 0.597656L10.1289 9.5625L4.17578 10.2422L2.05469 6.35156C1.90234 6.05859 1.64453 5.92969 1.25781 5.92969H0.753906C0.449219 5.92969 0.25 6.12891 0.25 6.43359V17.4258C0.25 17.7305 0.449219 17.918 0.753906 17.918H1.25781C1.64453 17.918 1.90234 17.7891 2.05469 17.5078L4.17578 13.6172L10.1289 14.2969L6.07422 23.2617C5.92188 23.5781 6.09766 23.8594 6.40234 23.8594H7.76172C8.11328 23.8594 8.41797 23.707 8.66406 23.4375L16.5391 14.8359C16.9258 14.4023 17.1719 14.2969 17.8281 14.2969H22.5508C24.7891 14.2969 26.6523 13.2891 26.6641 11.9297Z" fill="#FA5E35"/>
</g>
<defs>
<clipPath id="clip0_78_1731">
<rect width="26.4141" height="23.8711" fill="white" transform="translate(0.25)"/>
</clipPath>
</defs>
</svg>
