<svg width="25" height="24" viewBox="0 0 25 24" fill="none" xmlns="http://www.w3.org/2000/svg">
<g clip-path="url(#clip0_78_822)">
<path d="M5.42969 22.5977H19.6445C22.1055 22.5977 23.3242 21.3789 23.3242 18.9648V4.65625C23.3242 2.24219 22.1055 1.02344 19.6445 1.02344H5.42969C2.98047 1.02344 1.75 2.23047 1.75 4.65625V18.9648C1.75 21.3906 2.98047 22.5977 5.42969 22.5977ZM12.543 18.6953C12.2148 18.6953 11.9688 18.4609 11.9688 18.1211V17.2539C10.3516 17.1016 9.00391 16.2109 8.66406 14.8164C8.62891 14.6992 8.60547 14.5703 8.60547 14.4414C8.60547 14.0195 8.89844 13.7266 9.30859 13.7266C9.67188 13.7266 9.92969 13.9141 10.0586 14.3359C10.2578 15.1328 10.8906 15.7422 11.9688 15.8945V12.332L11.8867 12.3086C9.87109 11.8281 8.83984 10.9141 8.83984 9.37891C8.83984 7.72656 10.1406 6.57812 11.9688 6.37891V5.54688C11.9688 5.20703 12.2148 4.97266 12.543 4.97266C12.8711 4.97266 13.1289 5.20703 13.1289 5.54688V6.37891C14.6758 6.55469 15.9062 7.45703 16.2227 8.75781C16.2461 8.88672 16.2812 9.01562 16.2812 9.13281C16.2812 9.55469 15.9766 9.84766 15.5664 9.84766C15.1797 9.84766 14.9453 9.61328 14.8281 9.25C14.582 8.44141 13.9844 7.92578 13.1289 7.77344V11.1367L13.2812 11.1719C15.3789 11.5469 16.4453 12.543 16.4453 14.1836C16.4453 16.0117 14.9922 17.1016 13.1289 17.2773V18.1211C13.1289 18.4609 12.8711 18.6953 12.543 18.6953ZM11.9688 10.832V7.77344C10.9492 7.94922 10.3398 8.57031 10.3398 9.29688C10.3398 10.0117 10.8203 10.4922 11.8867 10.8086L11.9688 10.832ZM13.1289 12.6133V15.8945C14.3594 15.7539 14.957 15.1094 14.957 14.2656C14.957 13.5039 14.5469 13 13.375 12.6836L13.1289 12.6133Z" fill="#FA5E35"/>
</g>
<defs>
<clipPath id="clip0_78_822">
<rect width="21.5742" height="21.5977" fill="white" transform="translate(1.75 1)"/>
</clipPath>
</defs>
</svg>
